<svg width="141" height="39" viewBox="0 0 141 39" fill="none" xmlns="http://www.w3.org/2000/svg">
<path d="M65.944 13.96C66.36 14.808 66.568 15.752 66.568 16.792C66.568 17.832 66.36 18.776 65.944 19.624C65.528 20.456 64.992 21.12 64.336 21.616C63.008 22.64 61.632 23.152 60.208 23.152H57.208V25.864C57.208 26.232 57.192 26.512 57.16 26.704C57.144 26.88 57.072 27.088 56.944 27.328C56.72 27.76 56.096 27.976 55.072 27.976C53.952 27.976 53.296 27.68 53.104 27.088C53.008 26.816 52.96 26.4 52.96 25.84V12.52C52.96 12.152 52.968 11.88 52.984 11.704C53.016 11.512 53.096 11.296 53.224 11.056C53.448 10.624 54.072 10.408 55.096 10.408H60.232C61.64 10.408 63.008 10.92 64.336 11.944C64.992 12.44 65.528 13.112 65.944 13.96ZM60.232 18.904C60.712 18.904 61.184 18.728 61.648 18.376C62.112 18.024 62.344 17.496 62.344 16.792C62.344 16.088 62.112 15.56 61.648 15.208C61.184 14.84 60.704 14.656 60.208 14.656H57.208V18.904H60.232ZM67.7641 21.688C67.7641 19.768 68.4361 18.184 69.7801 16.936C71.1241 15.688 72.6601 15.064 74.3881 15.064C76.1161 15.064 77.6441 15.688 78.9721 16.936C80.3001 18.168 80.9641 19.744 80.9641 21.664C80.9641 22.992 80.6201 24.176 79.9321 25.216C79.2441 26.24 78.4041 27 77.4121 27.496C76.4361 27.976 75.4201 28.216 74.3641 28.216C73.3081 28.216 72.2841 27.96 71.2921 27.448C70.3001 26.92 69.4601 26.152 68.7721 25.144C68.1001 24.12 67.7641 22.968 67.7641 21.688ZM72.7801 23.416C73.2921 23.8 73.8121 23.992 74.3401 23.992C74.8681 23.992 75.3961 23.792 75.9241 23.392C76.4521 22.992 76.7161 22.4 76.7161 21.616C76.7161 20.832 76.4681 20.248 75.9721 19.864C75.4761 19.48 74.9401 19.288 74.3641 19.288C73.7881 19.288 73.2521 19.488 72.7561 19.888C72.2601 20.288 72.0121 20.88 72.0121 21.664C72.0121 22.432 72.2681 23.016 72.7801 23.416ZM82.6107 26.872C82.3067 26.68 82.1547 26.376 82.1547 25.96C82.1547 25.544 82.4587 24.912 83.0667 24.064C83.2427 23.792 83.5227 23.656 83.9067 23.656C84.3067 23.656 84.8427 23.856 85.5147 24.256C86.1867 24.64 86.7947 24.832 87.3387 24.832C88.3147 24.832 88.8027 24.64 88.8027 24.256C88.8027 23.952 88.2667 23.728 87.1947 23.584C86.1867 23.44 85.1867 23.064 84.1947 22.456C83.7307 22.168 83.3467 21.72 83.0427 21.112C82.7387 20.488 82.5867 19.752 82.5867 18.904C82.5867 16.376 84.3227 15.112 87.7947 15.112C88.9307 15.112 90.0987 15.384 91.2987 15.928C91.8587 16.184 92.1387 16.504 92.1387 16.888C92.1387 17.272 91.9627 17.744 91.6107 18.304C91.2587 18.864 90.8987 19.144 90.5307 19.144C90.3387 19.144 89.9787 19.024 89.4507 18.784C88.9387 18.544 88.3787 18.424 87.7707 18.424C86.8267 18.424 86.3547 18.6 86.3547 18.952C86.3547 19.432 86.8987 19.744 87.9867 19.888C89.0427 20 90.0667 20.304 91.0587 20.8C91.5227 21.024 91.9067 21.416 92.2107 21.976C92.5307 22.52 92.6907 23.208 92.6907 24.04C92.6907 24.872 92.5307 25.584 92.2107 26.176C91.9067 26.752 91.4747 27.184 90.9147 27.472C89.8907 27.968 88.6027 28.216 87.0507 28.216C85.5147 28.216 84.0347 27.768 82.6107 26.872ZM101.226 19.6L99.6659 19.504V22.816C99.6659 23.248 99.7299 23.56 99.8579 23.752C100.002 23.944 100.258 24.04 100.626 24.04C101.01 24.04 101.298 24.056 101.49 24.088C101.698 24.104 101.914 24.176 102.138 24.304C102.506 24.512 102.69 25.048 102.69 25.912C102.69 26.92 102.466 27.536 102.018 27.76C101.778 27.872 101.562 27.944 101.37 27.976C101.194 27.992 100.93 28 100.578 28C98.9139 28 97.6499 27.624 96.7859 26.872C95.9219 26.12 95.4899 24.848 95.4899 23.056V19.504C95.1859 19.552 94.8579 19.576 94.5059 19.576C94.1539 19.576 93.8579 19.44 93.6179 19.168C93.3939 18.896 93.2819 18.432 93.2819 17.776C93.2819 17.12 93.3219 16.648 93.4019 16.36C93.4819 16.056 93.5939 15.84 93.7379 15.712C93.9939 15.504 94.3139 15.4 94.6979 15.4L95.4899 15.496V13.024C95.4899 12.656 95.4979 12.384 95.5139 12.208C95.5459 12.032 95.6259 11.84 95.7539 11.632C95.9619 11.232 96.5779 11.032 97.6019 11.032C98.6899 11.032 99.3379 11.328 99.5459 11.92C99.6259 12.176 99.6659 12.584 99.6659 13.144V15.496C100.37 15.432 100.898 15.4 101.25 15.4C101.618 15.4 101.89 15.416 102.066 15.448C102.258 15.464 102.474 15.536 102.714 15.664C103.13 15.872 103.338 16.488 103.338 17.512C103.338 18.52 103.122 19.136 102.69 19.36C102.45 19.472 102.234 19.544 102.042 19.576C101.866 19.592 101.594 19.6 101.226 19.6ZM105.527 33.472C104.759 33.472 104.311 33.24 104.183 32.776C104.103 32.536 104.063 32.216 104.063 31.816C104.063 31.416 104.095 31.096 104.159 30.856C104.239 30.616 104.359 30.448 104.519 30.352C104.791 30.224 105.135 30.16 105.551 30.16H121.703C122.471 30.16 122.919 30.4 123.047 30.88C123.127 31.12 123.167 31.432 123.167 31.816C123.167 32.216 123.127 32.536 123.047 32.776C122.983 33.016 122.871 33.184 122.711 33.28C122.471 33.408 122.127 33.472 121.679 33.472H105.527ZM124.491 12.52C124.491 12.152 124.499 11.88 124.515 11.704C124.547 11.512 124.627 11.296 124.755 11.056C124.979 10.624 125.603 10.408 126.627 10.408C127.747 10.408 128.411 10.704 128.619 11.296C128.699 11.568 128.739 11.984 128.739 12.544V25.888C128.739 26.272 128.723 26.552 128.691 26.728C128.675 26.904 128.603 27.112 128.475 27.352C128.251 27.784 127.627 28 126.603 28C125.483 28 124.827 27.696 124.635 27.088C124.539 26.832 124.491 26.424 124.491 25.864V12.52ZM137.999 19.6L136.439 19.504V22.816C136.439 23.248 136.503 23.56 136.631 23.752C136.775 23.944 137.031 24.04 137.399 24.04C137.783 24.04 138.071 24.056 138.263 24.088C138.471 24.104 138.687 24.176 138.911 24.304C139.279 24.512 139.463 25.048 139.463 25.912C139.463 26.92 139.239 27.536 138.791 27.76C138.551 27.872 138.335 27.944 138.143 27.976C137.967 27.992 137.703 28 137.351 28C135.687 28 134.423 27.624 133.559 26.872C132.695 26.12 132.263 24.848 132.263 23.056V19.504C131.959 19.552 131.631 19.576 131.279 19.576C130.927 19.576 130.631 19.44 130.391 19.168C130.167 18.896 130.055 18.432 130.055 17.776C130.055 17.12 130.095 16.648 130.175 16.36C130.255 16.056 130.367 15.84 130.511 15.712C130.767 15.504 131.087 15.4 131.471 15.4L132.263 15.496V13.024C132.263 12.656 132.271 12.384 132.287 12.208C132.319 12.032 132.399 11.84 132.527 11.632C132.735 11.232 133.351 11.032 134.375 11.032C135.463 11.032 136.111 11.328 136.319 11.92C136.399 12.176 136.439 12.584 136.439 13.144V15.496C137.143 15.432 137.671 15.4 138.023 15.4C138.391 15.4 138.663 15.416 138.839 15.448C139.031 15.464 139.247 15.536 139.487 15.664C139.903 15.872 140.111 16.488 140.111 17.512C140.111 18.52 139.895 19.136 139.463 19.36C139.223 19.472 139.007 19.544 138.815 19.576C138.639 19.592 138.367 19.6 137.999 19.6Z" fill="white"/>
<g clip-path="url(#clip0_546_56)">
<path d="M22.75 8.125C22.75 6.3375 21.2875 4.875 19.5 4.875H17.875V3.25C17.875 2.35625 17.1438 1.625 16.25 1.625H9.75C8.85625 1.625 8.125 2.35625 8.125 3.25V4.875H6.5C4.7125 4.875 3.25 6.3375 3.25 8.125V32.5C3.25 34.2875 4.7125 35.75 6.5 35.75H19.5C21.2875 35.75 22.75 34.2875 22.75 32.5H35.75V8.125H22.75ZM19.5 29.25H16.25V26H19.5V29.25ZM19.5 14.625H16.25V11.375H19.5V14.625ZM26 29.25H22.75V26H26V29.25ZM26 14.625H22.75V11.375H26V14.625ZM32.5 29.25H29.25V26H32.5V29.25ZM32.5 14.625H29.25V11.375H32.5V14.625Z" fill="white"/>
</g>
<defs>
<clipPath id="clip0_546_56">
<rect width="39" height="39" fill="white"/>
</clipPath>
</defs>
</svg>
